<svg version="1" xmlns="http://www.w3.org/2000/svg" width="1440" height="1440" viewBox="0 0 1080.000000 1080.000000"><path d="M512.8.5c-.1.1-4.6.6-9.8.9-19.7 1.3-42.2 3.9-56 6.6-3 .6-7.1 1.3-9 1.6-1.9.3-7.2 1.4-11.7 2.5-4.4 1-9.4 2.1-11 2.3-17.7 3.2-68.7 20.4-93.5 31.5-2.6 1.2-5.1 2.2-5.5 2.3-1.8.4-35.8 18-45.9 23.8-18.8 10.8-50.4 32.2-64 43.3-1 .9-4.9 4-8.5 6.9-19.5 15.8-51 46.6-68.1 66.8C78.1 249.6 41.4 318.2 20 394.3c-2.2 7.7-4.2 15-4.5 16.1-.2 1.2-1.7 8.2-3.3 15.6-4.4 19.9-7.1 36.7-8.8 53.5-.3 3.3-.7 7.1-1 8.5-2.5 16.1-2.5 82.3.1 103.7.2 1.6.6 5.7.9 9.3.4 3.6.8 7.6 1 9 .3 1.4.9 5.9 1.5 10 2.3 15.6 7.8 42.4 11.2 55 1.1 4.1 2.2 8.3 2.4 9.3.2 1 1.6 5.7 3 10.5 26.2 86.2 71.1 161.6 134 224.8 23.2 23.3 32.1 31.2 54.5 48.5 48.8 37.6 102.9 66.2 162 85.5 9.8 3.2 14.7 4.7 32.5 9.5 8 2.1 27.1 6.3 36 7.9 3.3.5 7 1.2 8.1 1.4 5.9 1.2 20.3 3.1 38.4 5.2 11.7 1.3 27.9 1.9 52.5 1.9 31.3 0 39.7-.5 70.5-4.1 8.2-.9 28.2-4.5 42.4-7.5 7.8-1.7 15.1-3.2 16.2-3.5 1.2-.2 9.1-2.4 17.5-4.8 55.5-16 101.7-37.1 148.9-68.1 13.9-9.1 37.2-25.9 41-29.6.8-.8 4-3.4 7-5.7 10.4-8.2 21.5-18.5 40-37.1 20-20.1 32.8-34.9 48.6-56.1 9.2-12.4 28.4-40.4 28.4-41.6 0-.3 1.5-2.8 3.3-5.7 12.2-19 29.8-55.6 40.7-84.2 8.1-21.5 18.9-56.9 21.6-71 .2-1.1 1-5.2 1.8-9 2-9.8 4.3-22.2 5.1-27.6.3-2.5.8-5.9 1-7.5 1.2-7.1 1.5-9.3 2-14.9.4-3.3.8-7.6 1.1-9.5 2.5-21.6 2.5-87.6-.1-104.2-.2-1.3-.6-5.4-1-9.2-.4-3.8-.8-7.9-1-9-.2-1.2-.6-3.9-1-6.1-.8-5.9-4.4-27.7-4.9-30-8.4-39.8-22.1-82.7-35.7-112-1.8-3.9-3.3-7.2-3.3-7.5-.2-1.7-13.2-26.7-20.4-39.5-12.5-22-33.4-53.4-45.5-68.1-.9-1.1-3.2-3.9-5.3-6.4-14.6-18-19.4-23.1-39.3-43-27.6-27.5-50.9-46.6-82.6-67.5-59-39-123.1-65.5-191.5-79-4.1-.8-8.6-1.7-10-2-2.7-.5-9.4-1.6-12.5-2-1.1-.2-5.4-.8-9.5-1.4-11.6-1.6-15.8-2.1-33-3.7-5.5-.6-67.7-1.4-68.2-.9zM647 191.3c4.2.5 12.5 1.7 16 2.3 1.4.2 4.1.7 6 1 1.9.3 7.2 1.4 11.6 2.5 4.5 1.1 9.1 2.2 10.3 2.4 1.1.2 2.5.6 2.9.9.5.3 1.9.7 3.3 1 5.1 1.1 23.2 7.7 31.4 11.5 12.7 5.9 16.8 8 24.5 12.5 16.5 9.6 28 17.7 41.5 28.9 10.9 9.1 35.6 34.9 38.9 40.6.5.9 1.6 2.2 2.4 3 1.6 1.7 13.8 19.8 17.5 26.1 4.5 7.5 15.2 30 19.1 39.6 3.4 8.7 10.9 33.6 12 39.9.3 1.6 1.2 6.8 2 11.5 3 16.7 3.8 26.8 3.9 45.5.1 12.7-1 34.2-1.8 35.5-.2.3-.6 3-1 6-.8 6.7-5.6 27.9-8.4 37.5-14.5 49.5-46.4 97.5-87.3 131.3-5.4 4.5-11.1 8.9-12.8 9.9-1.6.9-3 2.1-3 2.5 0 .4-.4.8-.9.8-.4 0-4.1 2.2-8.2 4.8-22.1 14.6-51.6 27.5-77.9 34.3-4.7 1.2-9.4 2.3-10.5 2.5-1.1.2-3.8.8-6 1.3s-6.1 1.2-8.7 1.5c-2.6.4-5.3.8-6 1.1-2.8.9-25.5 2.5-36.3 2.5-14.6.1-32.8-1.3-45.5-3.6-1.4-.2-4.1-.7-6-1-1.9-.3-5.3-1-7.5-1.6-2.2-.5-4.8-1.2-5.8-1.4-1-.2-2.6-.5-3.5-.8-29-8.1-53.6-19-77.1-34.3l-8.4-5.5-103.1 103.1C307.9 843.6 261.2 890 260.7 890c-.4 0-16.5-15.8-35.7-35l-35-35 103.5-103.5L397 613l-4.8-7.8c-13-20.6-27.1-52.9-31.7-72.2-.2-.8-1-4-1.9-7-1.5-5.9-4.2-19.6-5.1-27-.3-2.5-.8-6.1-1-8-2.2-16.2-2.2-50.3 0-64 .2-1.4.7-4.5 1-7 4.4-32 18.1-70.5 35.9-100.5 5.6-9.4 15.8-24.2 21.1-30.5 2.1-2.5 5.4-6.5 7.4-8.9 8.9-10.8 19.5-20.7 39.2-36.5 6.5-5.3 27.8-18.3 39.5-24.2 21.8-11 47-20 64.4-23 1.4-.3 3.2-.7 4-.9.8-.2 3.1-.7 5-1 1.9-.3 6-1 9-1.5s9.1-1.3 13.5-1.6c4.4-.3 8.2-.8 8.4-1 .5-.4 41.6.4 46.1.9z"/><path d="M598.9 260.3c-31.1 4.3-48.6 9.2-70 19.7-57.2 28.1-98.9 81-112.4 142.5-.7 3.3-1.6 8-1.9 10.5-.4 2.5-.9 5.8-1.2 7.5-.3 1.6-.6 10.6-.8 20-.2 16.2.9 30.9 3.4 42.1.6 2.8 1.3 6.3 1.6 7.8.2 1.5 2.4 8.7 4.8 16 7.6 23.1 19.2 44.5 35.1 64.8 6.4 8 20.2 21.8 27.1 26.9 3.2 2.4 6.1 4.7 6.4 5 .7.8 15.6 10.9 19.5 13.1 20.1 11.6 49 22.1 69 25.2 1.7.3 4.4.7 6 1 22.8 3.6 56.2 2.3 77.9-3 3.3-.8 7-1.7 8.1-1.9 4.7-1.1 19.1-5.9 19.9-6.6.6-.5 1.6-.9 2.3-.9 3.5 0 36.6-17.5 43.8-23.2.6-.4 4.8-3.8 9.5-7.4 8.5-6.6 20.8-18.6 26.5-25.8 1.7-2.1 3.6-4.4 4.3-5.2 4.2-4.5 17.2-25.5 22.7-36.7 9.8-20.2 16-40.5 19.2-63.7 1-7.1 1-41 0-47.5-.4-2.8-1-6.4-1.3-8-.5-3-2.1-12.2-3-16.2-.8-4.2-8.1-25.8-10.4-30.8-17.5-38.8-43.6-69.8-78-92.6-8.9-5.9-29.3-16.6-37-19.4-21.2-7.6-36.9-11.3-55.3-13.1-9.2-1-29.6-1-35.8-.1z"/></svg>