<?xml version="1.0"?>
<svg id="SvgIconEmpty" xmlns="http://www.w3.org/2000/svg" viewBox="0 0 64 64">
    <path d="M 13.617188 4 C 12.854188 4 12.169125 4.4244687 11.828125 5.1054688 L 10.382812 8 L 8.2070312 8 C 6.6910312 8 5.3745781 9.0769063 5.1425781 10.503906 C 4.9995781 11.382906 5.2454063 12.270406 5.8164062 12.941406 C 6.1814063 13.371406 6.6595937 13.667891 7.1835938 13.837891 L 11.919922 59.310547 C 12.077922 60.844547 13.360344 62 14.902344 62 L 40.726562 62 C 42.136562 63.241 43.979 64 46 64 C 50.411 64 54 60.411 54 56 C 54 52.798 52.104859 50.036766 49.380859 48.759766 L 53.017578 13.841797 C 53.465578 13.696797 53.879656 13.459234 54.222656 13.115234 C 54.788656 12.546234 55.100609 11.792187 55.099609 10.992188 C 55.099609 10.154188 55.044719 9.4264531 55.011719 9.0644531 C 54.996719 8.9094531 54.971594 8.7632812 54.933594 8.6132812 C 54.255594 5.8972812 51.825391 4 49.025391 4 L 13.617188 4 z M 13.617188 6 L 49.025391 6 C 50.905391 6 52.538516 7.2735313 52.978516 9.0195312 L 52.996094 9.1035156 C 53.009094 9.1525156 53.017484 9.202 53.021484 9.25 C 53.051484 9.575 53.101562 10.233188 53.101562 10.992188 C 53.101562 11.259187 52.997641 11.512125 52.806641 11.703125 C 52.616641 11.894125 52.365563 12 52.101562 12 L 8.1015625 12 C 7.8075625 12 7.5298438 11.871484 7.3398438 11.646484 C 7.1468438 11.418484 7.0672344 11.127219 7.1152344 10.824219 C 7.1902344 10.362219 7.6690312 10 8.2070312 10 L 11.619141 10 L 11.654297 9.9296875 C 11.762297 9.9706875 11.877 10 12 10 L 43 10 C 43.552 10 44 9.552 44 9 C 44 8.448 43.552 8 43 8 L 12.617188 8 L 13.617188 6 z M 47 8 C 46.448 8 46 8.448 46 9 C 46 9.552 46.448 10 47 10 L 50 10 C 50.552 10 51 9.552 51 9 C 51 8.448 50.552 8 50 8 L 47 8 z M 9.2109375 14 L 50.990234 14 L 47.435547 48.136719 C 46.969547 48.051719 46.491 48 46 48 C 41.589 48 38 51.589 38 56 C 38 57.458 38.398031 58.822 39.082031 60 L 14.902344 60 C 14.388344 60 13.96025 59.614516 13.90625 59.103516 L 9.2109375 14 z M 27 18 C 26.448 18 26 18.448 26 19 C 26 19.552 26.448 20 27 20 L 33 20 C 33.552 20 34 19.552 34 19 C 34 18.448 33.552 18 33 18 L 27 18 z M 30.097656 26.681641 C 29.056656 26.702641 28.131266 27.185016 27.572266 28.041016 L 26.636719 29.476562 C 26.334719 29.938562 26.464734 30.557375 26.927734 30.859375 C 27.390734 31.160375 28.009547 31.030359 28.310547 30.568359 L 29.248047 29.134766 C 29.437047 28.844766 29.746844 28.641641 30.089844 28.681641 C 30.435844 28.682641 30.740734 28.849625 30.927734 29.140625 L 34.236328 34.302734 L 32.189453 33.910156 C 31.649453 33.806156 31.123531 34.160125 31.019531 34.703125 C 30.915531 35.245125 31.2695 35.769047 31.8125 35.873047 L 36.078125 36.691406 C 36.141125 36.703406 36.204578 36.708984 36.267578 36.708984 C 36.737578 36.708984 37.157047 36.375484 37.248047 35.896484 L 38.066406 31.630859 C 38.170406 31.088859 37.814484 30.564938 37.271484 30.460938 C 36.730484 30.358937 36.205562 30.712859 36.101562 31.255859 L 35.769531 32.986328 L 32.611328 28.060547 C 32.058328 27.201547 31.119656 26.685641 30.097656 26.681641 z M 25.863281 31.615234 C 25.701031 31.607859 25.538172 31.640531 25.388672 31.707031 L 21.386719 32.474609 C 20.844719 32.578609 20.487797 33.101531 20.591797 33.644531 C 20.695797 34.187531 21.218719 34.5445 21.761719 34.4375 L 23.628906 34.080078 L 20.181641 39.359375 C 19.578641 40.282375 19.529688 41.458734 20.054688 42.427734 C 20.580687 43.396734 21.592312 44 22.695312 44 L 25.101562 44 C 25.653562 44 26.101562 43.552 26.101562 43 C 26.101562 42.448 25.653562 42 25.101562 42 L 22.695312 42 C 22.157312 42 21.900453 41.633563 21.814453 41.476562 C 21.729453 41.318562 21.564422 40.902125 21.857422 40.453125 L 25.306641 35.169922 L 25.675781 37.09375 C 25.766781 37.57275 26.18625 37.904297 26.65625 37.904297 C 26.71825 37.904297 26.781703 37.898719 26.845703 37.886719 C 27.387703 37.782719 27.742672 37.259797 27.638672 36.716797 L 26.822266 32.451172 C 26.767266 32.164172 26.591328 31.936922 26.361328 31.794922 C 26.350328 31.786922 26.345984 31.774578 26.333984 31.767578 C 26.186484 31.671578 26.025531 31.622609 25.863281 31.615234 z M 37.783203 37.261719 C 37.655203 37.283844 37.530312 37.3315 37.414062 37.40625 C 36.949062 37.70425 36.813328 38.324062 37.111328 38.789062 L 38.183594 40.460938 C 38.472594 40.911938 38.30475 41.323469 38.21875 41.480469 C 38.13375 41.636469 37.876797 42 37.341797 42 L 30.896484 42 L 32.261719 40.636719 C 32.652719 40.245719 32.652719 39.612656 32.261719 39.222656 C 31.870719 38.831656 31.238656 38.831656 30.847656 39.222656 L 27.777344 42.292969 C 27.685344 42.384969 27.611547 42.495187 27.560547 42.617188 C 27.459547 42.862187 27.459547 43.138813 27.560547 43.382812 C 27.611547 43.504812 27.685344 43.615031 27.777344 43.707031 L 30.847656 46.777344 C 31.042656 46.972344 31.298688 47.070312 31.554688 47.070312 C 31.810688 47.070312 32.066719 46.972344 32.261719 46.777344 C 32.652719 46.387344 32.652719 45.754281 32.261719 45.363281 L 30.896484 44 L 37.341797 44 C 38.455797 44 39.440609 43.417453 39.974609 42.439453 C 40.508609 41.461453 40.468188 40.318859 39.867188 39.380859 L 38.796875 37.707031 C 38.572625 37.358281 38.167203 37.195344 37.783203 37.261719 z M 46 50 C 49.309 50 52 52.691 52 56 C 52 59.309 49.309 62 46 62 C 42.691 62 40 59.309 40 56 C 40 52.691 42.691 50 46 50 z M 16.101562 54 C 15.549563 54 15.101562 54.448 15.101562 55 L 15.101562 57 C 15.101563 57.552 15.548562 58 16.101562 58 C 16.653562 58 17.101562 57.552 17.101562 57 L 17.101562 55 C 17.101562 54.448 16.653562 54 16.101562 54 z M 21.101562 54 C 20.549563 54 20.101562 54.448 20.101562 55 L 20.101562 57 C 20.101562 57.552 20.549563 58 21.101562 58 C 21.653562 58 22.101562 57.552 22.101562 57 L 22.101562 55 C 22.101562 54.448 21.653562 54 21.101562 54 z M 26.101562 54 C 25.549563 54 25.101562 54.448 25.101562 55 L 25.101562 57 C 25.101562 57.552 25.549563 58 26.101562 58 C 26.653562 58 27.101562 57.552 27.101562 57 L 27.101562 55 C 27.101562 54.448 26.653562 54 26.101562 54 z M 31.101562 54 C 30.549563 54 30.101562 54.448 30.101562 55 L 30.101562 57 C 30.101562 57.552 30.549563 58 31.101562 58 C 31.653562 58 32.101562 57.552 32.101562 57 L 32.101562 55 C 32.101562 54.448 31.653562 54 31.101562 54 z M 36.101562 54 C 35.549563 54 35.101562 54.448 35.101562 55 L 35.101562 57 C 35.101562 57.552 35.549563 58 36.101562 58 C 36.653562 58 37.101562 57.552 37.101562 57 L 37.101562 55 C 37.101562 54.448 36.653562 54 36.101562 54 z M 46 54 A 2 2 0 0 0 44 56 A 2 2 0 0 0 46 58 A 2 2 0 0 0 48 56 A 2 2 0 0 0 46 54 z"/>
</svg>
