<?xml version="1.0" encoding="utf-8"?>
<!-- Generator: Adobe Illustrator 23.0.0, SVG Export Plug-In . SVG Version: 6.00 Build 0)  -->
<svg version="1.1" id="Camada_1" xmlns="http://www.w3.org/2000/svg" xmlns:xlink="http://www.w3.org/1999/xlink" x="0px" y="0px"
	 viewBox="0 0 59 59" style="enable-background:new 0 0 59 59;" xml:space="preserve">
<g id="EmptySearchIcon" transform="translate(-557.874 -465.873)">
	<g id="Path_2" transform="translate(549.898 457.898)">
		<path d="M15.5,64.9l16.2-16.2c3.6,2.6,7.8,3.8,12,3.8c5.5,0,10.9-2.1,15-6.2c8.3-8.3,8.3-21.8,0-30.1c-4.2-4.2-9.6-6.2-15-6.2
			s-10.9,2.1-15,6.2c-7.1,7.5-7.9,18.6-2.4,26.9L10,59.4L15.5,64.9 M43.4,15.4c4.1,0,8.1,1.6,11.3,4.8c6.3,6.3,6.3,16.2,0,22.6
			c-3.2,3-7.2,4.5-11.3,4.5s-8.1-1.5-11.3-4.5c-6.3-6.3-6.3-16.2,0-22.6C35.3,17,39.4,15.4,43.4,15.4 M15.5,66.9
			c-0.5,0-1-0.2-1.4-0.6l-5.5-5.5c-0.8-0.8-0.8-2,0-2.8l15.1-15.1C22.6,41,21.8,39,21.3,37c-0.6-2.5-0.9-5.2-0.6-7.8
			c0.2-2.6,0.9-5.2,1.9-7.6c1.1-2.5,2.6-4.8,4.5-6.8c0,0,0,0,0,0c2.2-2.2,4.8-3.9,7.7-5.1C37.7,8.5,40.6,8,43.6,8s6,0.6,8.8,1.7
			c2.9,1.2,5.5,2.9,7.7,5.1c2.2,2.2,3.9,4.8,5.1,7.7c1.1,2.8,1.7,5.7,1.7,8.8c0,3-0.6,6-1.7,8.8c-1.2,2.9-2.9,5.5-5.1,7.7
			c-2.2,2.2-4.7,3.9-7.6,5c-2.8,1.1-5.8,1.7-8.8,1.7c-4.2,0-8.2-1.1-11.7-3.2L16.9,66.3C16.6,66.7,16.1,66.9,15.5,66.9z M33.5,41.3
			c2.7,2.5,6.2,3.9,9.9,3.9s7.2-1.4,9.9-3.9c2.7-2.7,4.1-6.2,4.1-9.8c0-3.7-1.5-7.2-4.2-9.9c-2.7-2.7-6.2-4.2-9.9-4.2
			c-3.7,0-7.2,1.5-9.9,4.2c-2.7,2.7-4.2,6.2-4.2,9.9C29.4,35.1,30.9,38.6,33.5,41.3z"/>
	</g>
	<path id="EmptyIcon" d="M593.7,479.3c-1,0-2,0.5-2.5,1.4l-0.9,1.4c-0.3,0.5-0.1,1.1,0.3,1.4c0.4,0.3,1,0.1,1.3-0.3l0.9-1.4
		c0.2-0.3,0.5-0.5,0.8-0.5c0.3,0,0.7,0.2,0.8,0.5l3.3,5.2l-2-0.4c-0.5-0.1-1.1,0.2-1.2,0.8c-0.1,0.5,0.2,1.1,0.8,1.2c0,0,0,0,0.1,0
		l4.3,0.8c0.1,0,0.1,0,0.2,0c0.5,0,0.9-0.3,1-0.8l0.8-4.3c0.1-0.5-0.3-1.1-0.8-1.2s-1.1,0.3-1.2,0.8l-0.3,1.7l-3.2-4.9
		C595.7,479.8,594.7,479.3,593.7,479.3z M589.5,484.2c-0.2,0-0.3,0-0.5,0.1l-4,0.8c-0.5,0.1-0.9,0.6-0.8,1.1
		c0.1,0.5,0.6,0.9,1.1,0.8c0,0,0.1,0,0.1,0l1.9-0.4l-3.4,5.3c-0.9,1.4-0.5,3.2,0.9,4.2c0.5,0.3,1.1,0.5,1.6,0.5h2.4c0.6,0,1-0.4,1-1
		s-0.4-1-1-1h-2.4c-0.6,0-1-0.4-1-1c0-0.2,0.1-0.4,0.2-0.5l3.4-5.3l0.4,1.9c0.1,0.5,0.5,0.8,1,0.8c0.1,0,0.1,0,0.2,0
		c0.5-0.1,0.9-0.6,0.8-1.2l-0.8-4.3c-0.1-0.3-0.2-0.5-0.5-0.7c0,0,0,0,0,0C589.8,484.2,589.6,484.2,589.5,484.2L589.5,484.2z
		 M601.4,489.8c-0.1,0-0.3,0.1-0.4,0.1c-0.5,0.3-0.6,0.9-0.3,1.4c0,0,0,0,0,0l1.1,1.7c0.3,0.5,0.2,1.1-0.3,1.4
		c-0.2,0.1-0.4,0.2-0.5,0.2h-6.4l1.4-1.4c0.4-0.4,0.4-1,0-1.4s-1-0.4-1.4,0c0,0,0,0,0,0l-3.1,3.1c-0.4,0.4-0.4,1,0,1.4l3.1,3.1
		c0.4,0.4,1,0.4,1.4,0c0.4-0.4,0.4-1,0-1.4c0,0,0,0,0,0l-1.4-1.4h6.4c1.7,0,3-1.3,3-3c0-0.6-0.2-1.1-0.5-1.6l-1.1-1.7
		C602.2,489.9,601.8,489.8,601.4,489.8L601.4,489.8z"/>
</g>
</svg>
