<?xml version="1.0"?>
<svg id="SvgIconError" xmlns="http://www.w3.org/2000/svg" viewBox="0 0 50 40">
    <path style="line-height:normal;text-indent:0;text-align:start;text-decoration-line:none;text-decoration-style:solid;text-decoration-color:#000;text-transform:none;block-progression:tb;isolation:auto;mix-blend-mode:normal" d="M 28.992188 8.546875 C 23.778469 8.546875 19.384687 11.660687 17.261719 16.070312 C 16.129497 15.28715 14.830797 14.722656 13.355469 14.722656 C 9.6400779 14.722656 6.6525916 17.663812 6.4296875 21.324219 C 2.7059141 22.670439 -5.9211895e-16 26.152406 0 30.330078 C 0 35.658457 4.340656 40 9.6699219 40 L 41.097656 40 C 46.002862 40 50 36.003939 50 31.099609 C 50 26.54878 46.511044 22.918295 42.095703 22.398438 C 42.110713 22.162872 42.142578 21.93944 42.142578 21.695312 C 42.142578 14.444926 36.243594 8.546875 28.992188 8.546875 z M 28.992188 10.546875 C 35.16278 10.546875 40.142578 15.5257 40.142578 21.695312 C 40.142578 22.150412 40.104655 22.610168 40.046875 23.078125 L 39.908203 24.199219 L 41.039062 24.199219 C 41.159062 24.199219 41.17766 24.197266 41.097656 24.197266 C 44.922298 24.197313 48 27.275939 48 31.099609 C 48 34.923279 44.92245 38 41.097656 38 L 9.6699219 38 C 5.4211878 38 2 34.577699 2 30.330078 C 2 26.793709 4.3861186 23.841074 7.6269531 22.945312 L 8.3867188 22.736328 L 8.359375 21.947266 C 8.354375 21.80725 8.3476562 21.737037 8.3476562 21.730469 C 8.3476562 18.952955 10.576792 16.722656 13.355469 16.722656 C 14.744384 16.722656 15.991299 17.284551 16.898438 18.193359 L 18.001953 19.298828 L 18.544922 17.833984 C 20.117523 13.584107 24.185065 10.546875 28.992188 10.546875 z M 19 22 A 2 2 0 0 0 17 24 A 2 2 0 0 0 19 26 A 2 2 0 0 0 21 24 A 2 2 0 0 0 19 22 z M 31 22 A 2 2 0 0 0 29 24 A 2 2 0 0 0 31 26 A 2 2 0 0 0 33 24 A 2 2 0 0 0 31 22 z M 25 29 C 18.980478 29 15.244141 33.345703 15.244141 33.345703 A 1.0001 1.0001 0 1 0 16.755859 34.654297 C 16.755859 34.654297 19.943522 31 25 31 C 30.056478 31 33.244141 34.654297 33.244141 34.654297 A 1.0001 1.0001 0 1 0 34.755859 33.345703 C 34.755859 33.345703 31.019522 29 25 29 z" font-weight="400" font-family="sans-serif" white-space="normal" overflow="visible"/>
</svg>
